#N canvas 577 44 842 678 10;
#X declare -lib mrpeach;
#N canvas 370 155 679 397 subpatch 1;
#X obj 376 -22 unpack f f f f;
#X floatatom 376 7 5 0 0 0 - - -;
#X floatatom 419 7 5 0 0 0 - - -;
#X floatatom 460 7 5 0 0 0 - - -;
#X floatatom 513 11 5 0 0 0 - - -;
#X obj 419 -47 print udp;
#X obj 278 0 print unpacked;
#X obj 281 -33 unpackOSC;
#X obj 360 41 print skald-ERROR;
#X obj 294 -69 udpreceive 8777;
#X obj 345 79 print skald-address-ERROR;
#X obj 223 41 routeOSC /skald;
#X obj 166 72 routeOSC /0 /1 /2 /3 /4;
#N canvas 123 378 547 265 subpatch 1;
#X obj 150 83 makenote 127 125;
#X text 291 120 125 microseconds/16th for 120 bpm;
#X obj 219 23 *;
#X obj 178 126 noteout;
#X obj 118 -52 bng 15 250 50 0 empty n3 empty 17 7 0 10 -261682 -1
-1;
#X msg 159 -9 55;
#X msg 153 -36 set \$1;
#X text 85 -75 play note;
#X obj 288 5 r ms16;
#X obj 174 -96 inlet;
#X obj 162 -64 unpack f f;
#X obj 318 -26 r update_notes;
#X floatatom 220 58 5 0 0 0 - - -;
#X msg 234 -7 1;
#X msg 233 -35 set \$1;
#X obj 33 -9 print note3_is_now;
#X obj 282 46 print duration_of_note3;
#X obj 61 118 print note3val;
#X connect 0 0 3 0;
#X connect 0 0 17 0;
#X connect 0 1 3 1;
#X connect 2 0 12 0;
#X connect 2 0 16 0;
#X connect 4 0 5 0;
#X connect 5 0 0 0;
#X connect 6 0 5 0;
#X connect 6 0 15 0;
#X connect 8 0 2 1;
#X connect 9 0 10 0;
#X connect 10 0 6 0;
#X connect 10 1 14 0;
#X connect 10 1 2 0;
#X connect 11 0 13 0;
#X connect 12 0 0 2;
#X connect 13 0 2 0;
#X connect 14 0 13 0;
#X restore 392 151 pd subpatch note3;
#N canvas 73 102 547 265 subpatch 0;
#X obj 150 83 makenote 127 125;
#X text 291 120 125 microseconds/16th for 120 bpm;
#X obj 219 23 *;
#X obj 178 126 noteout;
#X obj 118 -52 bng 15 250 50 0 empty n2 empty 17 7 0 10 -261682 -1
-1;
#X msg 159 -9 65;
#X msg 153 -36 set \$1;
#X text 85 -75 play note;
#X obj 288 5 r ms16;
#X obj 174 -96 inlet;
#X obj 162 -64 unpack f f;
#X obj 318 -26 r update_notes;
#X floatatom 220 58 5 0 0 0 - - -;
#X msg 234 -7 1;
#X msg 233 -35 set \$1;
#X obj 31 -7 print note2_is_now;
#X obj 282 46 print duration_of_note2;
#X obj 53 121 print note2val;
#X connect 0 0 3 0;
#X connect 0 0 17 0;
#X connect 0 1 3 1;
#X connect 2 0 12 0;
#X connect 2 0 16 0;
#X connect 4 0 5 0;
#X connect 5 0 0 0;
#X connect 6 0 5 0;
#X connect 6 0 15 0;
#X connect 8 0 2 1;
#X connect 9 0 10 0;
#X connect 10 0 6 0;
#X connect 10 1 14 0;
#X connect 10 1 2 0;
#X connect 11 0 13 0;
#X connect 12 0 0 2;
#X connect 13 0 2 0;
#X connect 14 0 13 0;
#X restore 281 151 pd subpatch note2;
#N canvas 78 88 547 265 subpatch 0;
#X obj 150 83 makenote 127 125;
#X text 291 120 125 microseconds/16th for 120 bpm;
#X obj 219 23 *;
#X obj 178 126 noteout;
#X obj 118 -52 bng 15 250 50 0 empty n1 empty 17 7 0 10 -261682 -1
-1;
#X msg 159 -9 62;
#X msg 153 -36 set \$1;
#X text 85 -75 play note;
#X obj 288 5 r ms16;
#X obj 174 -96 inlet;
#X obj 162 -64 unpack f f;
#X obj 318 -26 r update_notes;
#X floatatom 220 58 5 0 0 0 - - -;
#X msg 234 -7 1;
#X msg 233 -35 set \$1;
#X obj 25 -14 print note1_is_now;
#X obj 282 46 print duration_of_note1;
#X obj 66 118 print note1val;
#X connect 0 0 3 0;
#X connect 0 0 17 0;
#X connect 0 1 3 1;
#X connect 2 0 12 0;
#X connect 2 0 16 0;
#X connect 4 0 5 0;
#X connect 5 0 0 0;
#X connect 6 0 5 0;
#X connect 6 0 15 0;
#X connect 8 0 2 1;
#X connect 9 0 10 0;
#X connect 10 0 6 0;
#X connect 10 1 14 0;
#X connect 10 1 2 0;
#X connect 11 0 13 0;
#X connect 12 0 0 2;
#X connect 13 0 2 0;
#X connect 14 0 13 0;
#X restore 169 149 pd subpatch note1;
#N canvas 123 378 547 265 subpatch 0;
#X obj 150 83 makenote 127 125;
#X text 291 120 125 microseconds/16th for 120 bpm;
#X obj 219 23 *;
#X obj 178 126 noteout;
#X obj 118 -52 bng 15 250 50 0 empty n0 empty 17 7 0 10 -261682 -1
-1;
#X msg 159 -9 60;
#X msg 153 -36 set \$1;
#X text 85 -75 play note;
#X obj 288 5 r ms16;
#X obj 174 -96 inlet;
#X obj 162 -64 unpack f f;
#X obj 318 -26 r update_notes;
#X floatatom 220 58 5 0 0 0 - - -;
#X msg 234 -7 1;
#X msg 233 -35 set \$1;
#X obj -15 -9 print note0_is_now;
#X obj 282 46 print duration_of_note0;
#X obj 4 122 print note0;
#X connect 0 0 3 0;
#X connect 0 0 17 0;
#X connect 0 1 3 1;
#X connect 2 0 12 0;
#X connect 2 0 16 0;
#X connect 4 0 5 0;
#X connect 5 0 0 0;
#X connect 6 0 5 0;
#X connect 6 0 15 0;
#X connect 8 0 2 1;
#X connect 9 0 10 0;
#X connect 10 0 6 0;
#X connect 10 1 14 0;
#X connect 10 1 2 0;
#X connect 11 0 13 0;
#X connect 12 0 0 2;
#X connect 13 0 2 0;
#X connect 14 0 13 0;
#X restore 56 150 pd subpatch note0;
#N canvas 123 92 547 265 subpatch 0;
#X obj 150 83 makenote 127 125;
#X text 291 120 125 microseconds/16th for 120 bpm;
#X obj 219 23 *;
#X obj 178 126 noteout;
#X obj 118 -52 bng 15 250 50 0 empty n4 empty 17 7 0 10 -261682 -1
-1;
#X msg 159 -9 77;
#X msg 153 -36 set \$1;
#X text 85 -75 play note;
#X obj 288 5 r ms16;
#X obj 174 -96 inlet;
#X obj 162 -64 unpack f f;
#X obj 318 -26 r update_notes;
#X floatatom 220 58 5 0 0 0 - - -;
#X msg 234 -7 1;
#X msg 233 -35 set \$1;
#X obj 282 46 print duration_of_note4;
#X obj 58 122 print note4val;
#X obj 32 -9 print note4_is_now;
#X connect 0 0 3 0;
#X connect 0 0 16 0;
#X connect 0 1 3 1;
#X connect 2 0 12 0;
#X connect 2 0 15 0;
#X connect 4 0 5 0;
#X connect 5 0 0 0;
#X connect 6 0 5 0;
#X connect 6 0 17 0;
#X connect 8 0 2 1;
#X connect 9 0 10 0;
#X connect 10 0 6 0;
#X connect 10 1 14 0;
#X connect 10 1 2 0;
#X connect 11 0 13 0;
#X connect 12 0 0 2;
#X connect 13 0 2 0;
#X connect 14 0 13 0;
#X restore 504 153 pd subpatch note4;
#X connect 0 0 1 0;
#X connect 0 1 2 0;
#X connect 0 2 3 0;
#X connect 0 3 4 0;
#X connect 7 0 6 0;
#X connect 7 0 11 0;
#X connect 9 0 7 0;
#X connect 9 1 5 0;
#X connect 9 1 0 0;
#X connect 11 0 12 0;
#X connect 11 1 8 0;
#X connect 12 0 16 0;
#X connect 12 1 15 0;
#X connect 12 2 14 0;
#X connect 12 3 13 0;
#X connect 12 4 17 0;
#X connect 12 5 10 0;
#X restore 331 79 pd subpatch osc2midi;
#N canvas 314 197 333 564 subpatch 0;
#X obj 57 235 bng 15 250 50 0 empty empty empty 17 7 0 10 -262144 -1
-1;
#X msg 77 123 stop;
#X floatatom 98 369 5 0 0 0 - - -;
#X obj 98 292 +;
#X floatatom 136 263 5 0 0 0 - - -;
#X msg 91 264 1;
#X msg 153 225 -1;
#X obj 91 235 t b b;
#X msg 123 126 start;
#X obj 105 163 t b b;
#X obj 91 203 metro 777;
#X obj 85 421 route 0 1 2 3 4;
#X obj 118 461 s n2;
#X obj 151 461 s n3;
#X obj 183 461 s n4;
#X obj 198 61 inlet ms_per_16;
#X obj 197 179 print time_per_16;
#X obj 33 349 print noteplayed;
#X obj 82 60 inlet;
#X obj 135 62 inlet;
#X obj 98 326 % 5;
#X obj 49 461 s n0;
#X obj 87 461 s n1;
#X connect 1 0 10 0;
#X connect 2 0 11 0;
#X connect 3 0 4 0;
#X connect 3 0 20 0;
#X connect 4 0 3 1;
#X connect 5 0 3 0;
#X connect 6 0 4 0;
#X connect 7 0 5 0;
#X connect 7 1 4 0;
#X connect 8 0 9 0;
#X connect 9 0 10 0;
#X connect 9 1 6 0;
#X connect 10 0 0 0;
#X connect 10 0 7 0;
#X connect 11 0 21 0;
#X connect 11 1 22 0;
#X connect 11 2 12 0;
#X connect 11 3 13 0;
#X connect 11 4 14 0;
#X connect 15 0 10 1;
#X connect 15 0 16 0;
#X connect 18 0 1 0;
#X connect 19 0 8 0;
#X connect 20 0 2 0;
#X connect 20 0 17 0;
#X restore 63 169 pd subpatch timer;
#N canvas 0 22 548 239 subpatch 0;
#X obj 68 42 inlet;
#X obj 53 171 outlet;
#X floatatom 68 78 5 0 0 0 - - -;
#X text 138 174 sends out value for 16th notes in microseconds;
#X text 181 83 BPM/60 = BPS;
#X text 181 118 (s/b)/4 = s/16th note;
#X text 181 101 1/BPS = s/4th note;
#X text 180 135 (1/(BPM/60))/4 = 60/(4*BPM) = 15/BPM;
#X text 183 152 ms/16th note = 15000/bpm;
#X obj 53 118 /;
#X obj 18 42 inlet;
#X text 177 32 send in bpm value in right inlet bang left inlet to
get output;
#X msg 24 79 15000;
#X connect 0 0 2 0;
#X connect 2 0 9 1;
#X connect 9 0 1 0;
#X connect 10 0 12 0;
#X connect 12 0 9 0;
#X restore 163 92 pd subpatch bpm2ms;
#X floatatom 178 127 5 0 0 0 - - -;
#X obj 165 63 bng 15 250 50 0 empty empty empty 17 7 0 10 -262144 -1
-1;
#X obj 112 136 bng 15 250 50 0 empty empty empty 17 7 0 10 -262144
-1 -1;
#X obj 63 136 bng 15 250 50 0 empty empty empty 17 7 0 10 -262144 -1
-1;
#X text 109 110 start;
#X text 60 108 stop;
#X obj 67 65 import mrpeach;
#X obj 540 33 bng 15 250 50 0 empty empty empty 17 7 0 10 -262144 -1
-1;
#N canvas 123 378 547 265 subpatch 0;
#X obj 150 83 makenote 127 125;
#X text 291 120 125 microseconds/16th for 120 bpm;
#X obj 219 23 *;
#X obj 178 126 noteout;
#X obj 118 -52 bng 15 250 50 0 empty note_template empty 17 7 0 10
-261682 -1 -1;
#X msg 159 -9 70;
#X msg 153 -36 set \$1;
#X text 85 -75 play note;
#X obj 288 5 r ms16;
#X obj 174 -96 inlet;
#X obj 162 -64 unpack f f;
#X obj -15 -9 print note_template_is_now;
#X obj 282 46 print duration_of_note_template;
#X obj 4 122 print note_templateval;
#X obj 318 -26 r update_notes;
#X floatatom 220 58 5 0 0 0 - - -;
#X msg 234 -7 0;
#X msg 233 -35 set \$1;
#X connect 0 0 3 0;
#X connect 0 0 13 0;
#X connect 0 1 3 1;
#X connect 2 0 12 0;
#X connect 2 0 15 0;
#X connect 4 0 5 0;
#X connect 5 0 0 0;
#X connect 6 0 5 0;
#X connect 6 0 11 0;
#X connect 8 0 2 1;
#X connect 9 0 10 0;
#X connect 10 0 6 0;
#X connect 10 1 17 0;
#X connect 10 1 2 0;
#X connect 14 0 16 0;
#X connect 15 0 0 2;
#X connect 16 0 2 0;
#X connect 17 0 16 0;
#X restore 487 91 pd subpatch note_template;
#X obj 488 56 70 2;
#X obj 197 169 trigger b f;
#X obj 260 197 s ms16;
#X obj 197 219 s update_notes;
#X text 415 164 1 Set bpm first;
#X text 415 178 2 Run sounder.py;
#X text 415 192 3 Start timer;
#X msg 268 63 80;
#X connect 2 0 3 0;
#X connect 2 0 1 2;
#X connect 3 0 13 0;
#X connect 4 0 2 0;
#X connect 5 0 1 1;
#X connect 6 0 1 0;
#X connect 10 0 12 0;
#X connect 12 0 11 0;
#X connect 13 0 15 0;
#X connect 13 1 14 0;
#X connect 19 0 2 1;
