#N canvas 577 44 842 678 10;
#X declare -lib mrpeach;
#N canvas 0 22 679 397 subpatch 1;
#X obj 281 60 unpack f f f f;
#X floatatom 281 89 5 0 0 0 - - -;
#X floatatom 324 89 5 0 0 0 - - -;
#X floatatom 365 89 5 0 0 0 - - -;
#X floatatom 418 93 5 0 0 0 - - -;
#X obj 324 35 print udp;
#X obj 183 82 print unpacked;
#X floatatom 129 251 5 0 0 0 - - -;
#X floatatom 227 249 5 0 0 0 - - -;
#X floatatom 312 252 5 0 0 0 - - -;
#X floatatom 440 252 5 0 0 0 - - -;
#X obj 95 251 bng 15 250 50 0 empty n0 empty 17 7 0 10 -258113 -1 -1
;
#X obj 202 250 bng 15 250 50 0 empty n1 empty 17 7 0 10 -257985 -1
-1;
#X obj 287 251 bng 15 250 50 0 empty n2 empty 17 7 0 10 -4034 -1 -1
;
#X obj 401 253 bng 15 250 50 0 empty n3 empty 17 7 0 10 -4160 -1 -1
;
#X obj 527 249 bng 15 250 50 0 empty n4 empty 17 7 0 10 -159808 -1
-1;
#X obj 95 294 pack 0 127 1;
#X obj 405 319 noteout;
#X obj 289 318 noteout;
#X obj 195 317 noteout;
#X obj 196 294 pack 0 127 1;
#X obj 289 296 pack 0 127 1;
#X obj 405 298 pack 0 127 1;
#X obj 95 271 f 0;
#X obj 198 271 f 0;
#X obj 290 276 f 0;
#X obj 405 276 f 0;
#X obj 95 317 noteout;
#X obj 44 19 import mrpeach;
#X obj 199 13 udpreceive 8777;
#X obj 186 49 unpackOSC;
#X obj 93 226 moses 0;
#X obj 162 132 route /skald;
#X obj 260 146 print skald-message;
#X obj 265 123 print skald-ERROR;
#X obj 203 178 unpack f f f f f;
#X obj 200 223 moses 0;
#X obj 533 223 moses 0;
#X obj 286 224 moses 0;
#X obj 403 225 moses 0;
#X floatatom 555 251 5 0 0 0 - - -;
#X obj 528 319 noteout;
#X obj 528 297 pack 0 127 1;
#X obj 528 273 f 0;
#X obj 28 10;
#X connect 0 0 1 0;
#X connect 0 1 2 0;
#X connect 0 2 3 0;
#X connect 0 3 4 0;
#X connect 7 0 23 1;
#X connect 8 0 24 1;
#X connect 9 0 25 1;
#X connect 10 0 26 1;
#X connect 11 0 23 0;
#X connect 12 0 24 0;
#X connect 13 0 25 0;
#X connect 14 0 26 0;
#X connect 15 0 43 0;
#X connect 16 0 27 0;
#X connect 20 0 19 0;
#X connect 21 0 18 0;
#X connect 22 0 17 0;
#X connect 23 0 16 0;
#X connect 24 0 20 0;
#X connect 25 0 21 0;
#X connect 26 0 22 0;
#X connect 29 0 30 0;
#X connect 29 1 5 0;
#X connect 29 1 0 0;
#X connect 30 0 6 0;
#X connect 30 0 32 0;
#X connect 31 1 7 0;
#X connect 32 0 33 0;
#X connect 32 0 35 0;
#X connect 32 1 34 0;
#X connect 35 0 31 0;
#X connect 35 1 36 0;
#X connect 35 2 38 0;
#X connect 35 3 39 0;
#X connect 35 4 37 0;
#X connect 36 1 8 0;
#X connect 37 1 40 0;
#X connect 38 1 9 0;
#X connect 39 1 10 0;
#X connect 40 0 43 1;
#X connect 42 0 41 0;
#X connect 43 0 42 0;
#X restore 220 49 pd subpatch osc2midi;
#N canvas 0 22 333 564 subpatch 0;
#X obj 57 235 bng 15 250 50 0 empty empty empty 17 7 0 10 -262144 -1
-1;
#X msg 77 123 stop;
#X floatatom 98 369 5 0 0 0 - - -;
#X obj 98 292 +;
#X floatatom 136 263 5 0 0 0 - - -;
#X msg 91 264 1;
#X msg 153 225 -1;
#X obj 91 235 t b b;
#X msg 123 126 start;
#X obj 105 163 t b b;
#X obj 91 203 metro 777;
#X obj 85 421 route 0 1 2 3 4;
#X obj 52 460 s n0;
#X obj 86 461 s n1;
#X obj 118 461 s n2;
#X obj 151 461 s n3;
#X obj 183 461 s n4;
#X obj 198 61 inlet ms_per_16;
#X obj 212 194 print time_per_16;
#X obj 33 349 print noteplayed;
#X obj 82 60 inlet;
#X obj 135 62 inlet;
#X obj 98 326 % 5;
#X connect 1 0 10 0;
#X connect 2 0 11 0;
#X connect 3 0 4 0;
#X connect 3 0 22 0;
#X connect 4 0 3 1;
#X connect 5 0 3 0;
#X connect 6 0 4 0;
#X connect 7 0 5 0;
#X connect 7 1 4 0;
#X connect 8 0 9 0;
#X connect 9 0 10 0;
#X connect 9 1 6 0;
#X connect 10 0 0 0;
#X connect 10 0 7 0;
#X connect 11 0 12 0;
#X connect 11 1 13 0;
#X connect 11 2 14 0;
#X connect 11 3 15 0;
#X connect 11 4 16 0;
#X connect 17 0 10 1;
#X connect 17 0 18 0;
#X connect 20 0 1 0;
#X connect 21 0 8 0;
#X connect 22 0 2 0;
#X connect 22 0 19 0;
#X restore -48 139 pd subpatch timer;
#N canvas 0 22 450 300 subpatch 0;
#X obj 68 42 inlet;
#X obj 53 171 outlet;
#X floatatom 68 78 5 0 0 0 - - -;
#X text 138 174 sends out value for 16th notes in microseconds;
#X text 181 83 BPM/60 = BPS;
#X text 181 118 (s/b)/4 = s/16th note;
#X text 181 101 1/BPS = s/4th note;
#X text 180 135 (1/(BPM/60))/4 = 60/(4*BPM) = 15/BPM;
#X text 183 152 ms/16th note = 15000/bpm;
#X obj 53 118 /;
#X obj 18 42 inlet;
#X text 177 32 send in bpm value in right inlet bang left inlet to
get output;
#X msg 24 79 15000;
#X connect 0 0 2 0;
#X connect 2 0 9 1;
#X connect 9 0 1 0;
#X connect 10 0 12 0;
#X connect 12 0 9 0;
#X restore 52 62 pd subpatch bpm2ms;
#X floatatom 52 100 5 0 0 0 - - -;
#X obj 54 33 bng 15 250 50 0 empty empty empty 17 7 0 10 -262144 -1
-1;
#X obj 1 106 bng 15 250 50 0 empty empty empty 17 7 0 10 -262144 -1
-1;
#X obj -48 106 bng 15 250 50 0 empty empty empty 17 7 0 10 -262144
-1 -1;
#X text -2 80 start;
#X text -51 78 stop;
#N canvas 0 22 531 361 subpatch 1;
#X obj 149 26 makenote 127 125;
#X text 263 26 125 microseconds/16th for 120 bpm;
#X obj 147 -70 unpack f f;
#X obj 218 -40 *;
#X obj 4 0 print note0_is_now;
#X obj 149 61 noteout;
#X obj 104 -66 bng 15 250 50 0 empty empty empty 17 7 0 10 -262144
-1 -1;
#X msg 148 -7 70;
#X msg 148 -32 set \$1;
#X obj 52 59 print note0val;
#X obj 254 -6 print duration_of_note0;
#X text 40 -88 play note;
#X obj 148 -107 inlet;
#X connect 0 0 5 0;
#X connect 0 0 9 0;
#X connect 0 1 5 1;
#X connect 2 0 8 0;
#X connect 2 1 3 0;
#X connect 3 0 0 2;
#X connect 3 0 10 0;
#X connect 6 0 7 0;
#X connect 7 0 0 0;
#X connect 8 0 7 0;
#X connect 8 0 4 0;
#X connect 12 0 2 0;
#X restore 119 136 pd subpatch note0;
#X msg 157 33 80;
#X connect 2 0 3 0;
#X connect 3 0 1 2;
#X connect 4 0 2 0;
#X connect 5 0 1 1;
#X connect 6 0 1 0;
#X connect 10 0 2 1;
